<?xml version="1.0" encoding="UTF-8" standalone="no"?>
<!-- Created with Inkscape (http://www.inkscape.org/) -->

<svg
   width="64"
   height="64"
   viewBox="0 0 16.933333 16.933334"
   version="1.1"
   id="svg5"
   xmlns="http://www.w3.org/2000/svg"
   xmlns:svg="http://www.w3.org/2000/svg">
  <defs
     id="defs2">
    <linearGradient
       id="linearGradient4340">
      <stop
         style="stop-color:#000000;stop-opacity:1;"
         offset="0"
         id="stop4338" />
    </linearGradient>
  </defs>
  <g
     id="layer1">
    <ellipse
       style="fill:none;stroke:#acacac;stroke-width:1.05833333;stroke-opacity:1;stroke-miterlimit:4;stroke-dasharray:none"
       id="path972"
       cx="8.4666681"
       cy="8.4666662"
       rx="7.5867028"
       ry="7.5867014" />
    <path
       style="stroke:none;stroke-width:0.264583px;stroke-linecap:butt;stroke-linejoin:miter;stroke-opacity:1;fill-opacity:1;fill:#acacac"
       d="m 3.9803474,14.657788 c 0,0 4.0119892,-8.2072493 8.7504466,0"
       id="path2250" />
    <path
       style="fill:#acacac;fill-opacity:1;stroke:none;stroke-width:0.264583;stroke-linecap:butt;stroke-linejoin:miter;stroke-miterlimit:4;stroke-dasharray:none;stroke-opacity:1"
       d="m 3.9803471,14.657788 c 0.1790102,0.05265 0.3506147,0.166055 0.5370309,0.15795 0.00957,-4.24e-4 0.3854421,-0.395469 0.4422608,-0.442261 0.1856629,-0.152899 0.4471559,-0.334143 0.6633914,-0.442261 0.2215488,-0.110775 0.9723826,-0.09477 1.2320122,-0.09477 0.1158303,0 0.2376045,0.03663 0.3474907,0 0.00999,-0.0033 -0.00745,-0.02414 0,-0.03159 0.047694,-0.04769 0.2379271,-0.06184 0.2527205,-0.06318 0.2926194,-0.0266 0.6253573,-0.01775 0.9161116,-0.03159 0.1065107,-0.0051 0.3591608,0.03823 0.473851,0 0.160542,-0.05351 0.386764,-0.04296 0.5686211,-0.03159 0.095168,0.0059 0.1893488,0.02296 0.2843104,0.03159 0.2928813,0.02662 0.5977573,-0.0401 0.8845223,0.03159 0.177045,0.04426 0.365766,0.09373 0.537031,0.15795 0.06358,0.02384 0.102061,0.07242 0.15795,0.09477 0.04031,0.01612 0.08753,0.01217 0.12636,0.03159 0.02664,0.01332 0.03654,0.04986 0.06318,0.06318 0.02825,0.01413 0.07243,-0.02234 0.09477,0 0.0074,0.0074 -0.0094,0.02688 0,0.03159 0.07767,0.03883 0.170343,0.03572 0.25272,0.06318 0.23938,0.07979 -0.01141,-0.01141 0.06318,0.06318 0.04069,0.04069 0.290255,0.132306 0.347491,0.189541 0.03051,0.03051 0.084,0.474213 0.06318,0.505441 -0.01306,0.01959 -0.04905,0.01275 -0.06318,0.03159 -0.09538,0.286141 0.03804,-0.03965 -0.09477,0.12636 -0.03542,0.04428 -0.02308,0.117853 -0.06318,0.15795 -0.0503,0.0503 -0.441941,-1.07e-4 -0.537032,0.03159 -0.07945,0.02648 -0.145441,0.10113 -0.22113,0.12636 -0.07658,0.02553 -0.223463,0.0023 -0.284311,0.06318 -0.01523,0.01523 -0.06275,0.115687 -0.09477,0.12636 -0.1,0.03333 -0.24837,0.04516 -0.34749,0.06318 -0.102458,0.01863 -0.197369,0.0513 -0.284311,0.09477 -0.07897,0.03948 -0.269874,0.04378 -0.3474909,0.06318 -0.1430284,0.03576 -0.2927209,0.112766 -0.4422608,0.126361 -0.36097,0.03281 -0.7100337,0.06318 -1.074062,0.06318 -0.1382861,0 -0.3324571,0.02828 -0.4738507,0 -0.2504192,-0.05008 -0.5187192,-0.109726 -0.7581605,-0.18954 -0.1308994,-0.04363 -0.3503895,-0.0426 -0.473851,-0.06318 C 6.5959026,15.74131 6.4819362,15.655984 6.3496014,15.637079 6.0969497,15.600986 5.8465986,15.511024 5.59144,15.479129 c -0.073141,-0.0091 -0.1690095,0.05212 -0.2211303,0 -0.01665,-0.01665 -0.011007,-0.05175 -0.03159,-0.06318 -0.2033267,-0.11296 -0.4308541,-0.08907 -0.6318011,-0.189541 -0.018836,-0.0094 0.00942,-0.04434 0,-0.06318 -0.014891,-0.02978 -0.066217,-0.01446 -0.09477,-0.03159 -0.12598,-0.07559 -0.2592393,-0.12962 -0.3790807,-0.18954 -0.1134118,-0.05671 -0.1692233,-0.188885 -0.2527205,-0.28431"
       id="path6330" />
    <circle
       style="fill:#acacac;fill-opacity:1;stroke:none;stroke-width:0.264162;stroke-miterlimit:4;stroke-dasharray:none;stroke-opacity:1"
       id="path6500"
       cx="8.2020836"
       cy="8.2020836"
       r="2.3812499" />
  </g>
</svg>
